<?xml version="1.0" standalone="no"?>
<!DOCTYPE svg PUBLIC "-//W3C//DTD SVG 20010904//EN"
 "http://www.w3.org/TR/2001/REC-SVG-20010904/DTD/svg10.dtd">
<svg version="1.0" xmlns="http://www.w3.org/2000/svg"
 width="342.000000pt" height="172.000000pt" viewBox="0 0 342.000000 172.000000"
 preserveAspectRatio="xMidYMid meet">

<g transform="translate(0.000000,172.000000) scale(0.100000,-0.100000)"
fill="#000000" stroke="none">
<path d="M2167 1486 c-50 -18 -62 -30 -87 -82 -14 -29 -24 -74 -28 -131 l-7
-88 -40 -6 -40 -5 40 -5 40 -4 3 -170 c4 -204 -3 -270 -29 -296 -10 -10 -19
-21 -19 -24 0 -3 52 -5 115 -5 63 0 115 3 115 6 0 3 -10 14 -22 24 -22 18 -23
24 -26 244 l-3 226 63 2 63 1 -60 6 -60 6 3 105 c3 93 10 130 37 193 9 21 -5
21 -58 3z"/>
<path d="M2280 1490 c0 -5 5 -12 10 -15 7 -4 1 -16 -15 -30 -29 -28 -32 -55
-7 -83 27 -31 55 -35 85 -11 33 25 35 66 7 102 -20 25 -80 53 -80 37z"/>
<path d="M240 1432 c57 -28 60 -42 60 -303 0 -266 7 -309 64 -376 50 -58 122
-87 216 -87 133 0 222 59 256 170 16 55 19 108 4 99 -6 -3 -10 -18 -10 -33 -1
-44 -35 -107 -76 -138 -33 -26 -46 -29 -109 -29 -63 0 -76 3 -109 29 -70 53
-76 78 -76 362 0 281 1 285 71 310 29 11 8 13 -146 13 -176 0 -179 0 -145 -17z"/>
<path d="M722 1434 c57 -17 97 -65 105 -124 3 -22 9 -40 12 -40 4 0 12 20 19
44 16 61 48 94 112 116 l55 19 -175 0 c-168 0 -173 -1 -128 -15z"/>
<path d="M1731 1404 c-12 -15 -21 -34 -21 -44 0 -10 9 -29 21 -44 43 -54 129
-23 129 47 0 43 -26 67 -73 67 -27 0 -41 -7 -56 -26z"/>
<path d="M3016 1414 c-46 -46 -19 -116 47 -122 67 -6 104 71 57 118 -24 24
-82 27 -104 4z"/>
<path d="M1131 1170 c-40 -10 -76 -21 -79 -25 -3 -3 7 -17 23 -29 30 -24 30
-25 34 -146 4 -159 -5 -246 -30 -271 -10 -10 -19 -21 -19 -24 0 -3 52 -5 115
-5 72 0 115 4 115 10 0 6 -7 13 -15 16 -27 11 -35 77 -35 287 0 237 12 216
-109 187z"/>
<path d="M1360 1177 c-84 -45 -92 -64 -24 -63 38 1 50 -4 70 -27 23 -27 24
-33 24 -191 0 -148 -2 -166 -20 -189 -11 -14 -20 -28 -20 -31 0 -3 50 -6 110
-6 61 0 110 3 110 7 0 3 -8 15 -17 26 -15 16 -19 47 -23 211 -6 207 -13 237
-61 262 -35 18 -116 18 -149 1z"/>
<path d="M1752 1168 l-84 -20 31 -32 31 -32 0 -176 c0 -160 -2 -177 -20 -201
-11 -14 -20 -28 -20 -31 0 -3 50 -6 110 -6 61 0 110 3 110 6 0 3 -9 17 -20 31
-19 24 -20 41 -20 254 0 212 -1 229 -17 228 -10 0 -56 -10 -101 -21z"/>
<path d="M2509 1162 c-66 -34 -113 -98 -129 -177 -30 -146 68 -299 205 -320
97 -14 214 35 250 106 19 36 13 49 -13 26 -46 -42 -131 -58 -189 -36 -60 22
-113 95 -113 154 l0 25 176 0 177 0 -6 54 c-6 58 -33 120 -65 149 -26 23 -87
46 -126 47 l-30 0 32 -32 c30 -32 62 -121 62 -175 0 -23 -2 -23 -110 -23
l-110 0 0 33 c0 56 27 128 61 163 l33 34 -26 0 c-14 0 -50 -13 -79 -28z"/>
<path d="M3037 1170 c-43 -10 -80 -20 -83 -23 -3 -2 9 -19 26 -36 l31 -31 -3
-181 c-3 -173 -4 -182 -25 -199 -12 -9 -19 -20 -16 -24 10 -9 223 -7 223 2 0
5 -9 17 -20 27 -19 17 -20 31 -20 252 0 216 -1 233 -17 232 -10 0 -53 -9 -96
-19z"/>
<path d="M1198 583 c-26 -4 -41 -23 -18 -23 6 0 10 -27 10 -60 0 -60 0 -60
-26 -54 l-26 7 26 -26 c23 -23 26 -34 26 -97 0 -75 -19 -110 -58 -110 -39 0
-57 37 -57 115 0 58 4 77 19 94 23 25 8 28 -34 6 -34 -17 -60 -62 -60 -100 0
-38 25 -90 51 -109 30 -20 88 -21 117 0 20 14 22 14 22 0 0 -17 39 -21 74 -7
18 7 18 8 3 14 -15 6 -17 27 -17 182 0 134 -3 175 -12 174 -7 -1 -25 -4 -40
-6z"/>
<path d="M274 565 c-36 -15 -64 -50 -64 -81 0 -33 36 -72 112 -120 80 -51 99
-83 74 -127 -8 -15 -11 -27 -5 -27 20 0 69 31 79 49 29 54 -1 103 -103 170
-80 52 -103 93 -71 126 23 22 15 26 -22 10z"/>
<path d="M375 567 c25 -15 67 -57 82 -82 10 -18 12 -15 12 23 1 46 -7 53 -79
65 -30 5 -32 4 -15 -6z"/>
<path d="M1835 561 c-79 -36 -112 -100 -103 -200 6 -59 37 -105 88 -131 52
-27 64 -25 35 4 -31 31 -38 75 -33 191 4 88 6 97 33 125 34 35 33 35 -20 11z"/>
<path d="M1933 574 c4 -4 17 -12 29 -18 13 -6 33 -31 45 -56 15 -31 23 -39 23
-25 1 11 3 33 5 48 3 22 -1 30 -18 36 -33 12 -92 22 -84 15z"/>
<path d="M578 522 c-24 -3 -28 -8 -28 -37 0 -24 -5 -35 -17 -38 -17 -4 -17 -5
0 -6 15 -1 17 -13 17 -97 0 -52 5 -104 10 -115 14 -26 70 -25 101 2 l24 20
-23 -6 c-42 -12 -52 9 -52 106 l0 88 33 4 32 4 -32 1 c-29 2 -32 5 -35 40 -3
34 -5 37 -30 34z"/>
<path d="M720 440 c-10 -6 -11 -10 -2 -10 9 0 12 -24 12 -88 0 -105 13 -132
64 -132 19 0 44 9 57 20 l24 20 -26 -6 c-46 -10 -59 15 -59 117 l0 89 -27 0
c-16 0 -35 -5 -43 -10z"/>
<path d="M875 440 c-11 -5 -14 -9 -7 -9 9 -1 12 -29 12 -105 0 -63 4 -107 11
-111 6 -4 27 -4 47 0 20 4 31 10 25 12 -9 3 -13 36 -13 114 l0 109 -27 -1
c-16 0 -37 -4 -48 -9z"/>
<path d="M1317 426 c11 -13 39 -67 62 -120 24 -53 47 -96 51 -96 4 0 12 16 18
35 9 32 7 44 -20 102 -16 36 -27 74 -25 84 5 17 -1 19 -50 19 l-54 0 18 -24z"/>
<path d="M1473 439 c10 -6 17 -22 17 -42 l0 -32 19 32 c11 17 28 36 38 42 14
8 6 10 -37 10 -42 0 -51 -2 -37 -10z"/>
<path d="M2131 438 c-25 -7 -31 -12 -22 -21 15 -15 15 -179 -1 -195 -9 -9 1
-12 47 -12 46 0 56 3 47 12 -8 8 -12 49 -12 120 0 117 2 114 -59 96z"/>
<path d="M2219 431 c-19 -16 -20 -20 -8 -21 9 0 20 -7 23 -16 4 -10 15 -14 33
-12 24 3 28 8 28 33 0 25 -4 31 -26 33 -15 2 -36 -6 -50 -17z"/>
<path d="M2383 430 c-43 -26 -61 -84 -44 -140 8 -28 22 -47 44 -60 40 -25 66
-27 43 -4 -12 12 -16 37 -16 104 0 67 4 92 16 104 23 23 -3 21 -43 -4z"/>
<path d="M2484 428 c11 -16 16 -46 16 -98 0 -52 -5 -82 -16 -98 -25 -37 12
-28 52 12 30 30 34 40 34 86 0 46 -4 56 -34 86 -40 40 -77 49 -52 12z"/>
<path d="M2626 441 c-18 -7 -18 -8 -3 -14 14 -5 17 -21 17 -92 0 -48 5 -95 10
-106 12 -22 55 -25 95 -7 30 13 34 28 5 21 -40 -11 -50 13 -50 113 l0 94 -27
-1 c-16 0 -37 -4 -47 -8z"/>
<path d="M2780 440 c-10 -6 -11 -10 -2 -10 9 0 12 -29 12 -110 0 -108 0 -110
23 -109 34 1 63 14 49 23 -8 5 -12 42 -12 112 l0 104 -27 0 c-16 0 -35 -5 -43
-10z"/>
<path d="M2945 443 c-43 -9 -50 -14 -37 -22 10 -6 12 -48 10 -174 l-3 -165 43
-4 c35 -3 41 0 36 12 -4 8 -9 41 -12 73 l-4 58 28 -7 29 -7 -23 19 c-20 16
-25 32 -28 84 -6 73 7 108 44 121 18 7 28 3 48 -16 21 -21 24 -33 24 -95 0
-57 -4 -74 -20 -90 l-20 -20 21 0 c12 0 36 15 55 34 30 30 34 40 34 86 0 46
-4 56 -34 86 -38 38 -87 46 -122 19 -25 -19 -34 -19 -34 0 0 15 -1 16 -35 8z"/>
<path d="M1957 342 c16 -10 26 -57 19 -87 -4 -14 -17 -30 -29 -36 -17 -7 -11
-8 26 -4 64 6 67 9 67 56 0 22 5 49 10 60 10 18 7 19 -47 19 -32 0 -53 -4 -46
-8z"/>
<path d="M220 283 c0 -52 0 -52 38 -62 20 -6 46 -11 57 -11 16 0 14 3 -9 15
-33 18 -51 38 -71 80 l-14 30 -1 -52z"/>
<path d="M1326 144 c-12 -12 -13 -20 -6 -35 19 -34 56 -20 85 31 7 13 6 13 -7
2 -12 -10 -18 -9 -28 3 -16 19 -25 19 -44 -1z"/>
</g>
</svg>
